<svg width="15" height="20" viewBox="0 0 15 20" fill="none" xmlns="http://www.w3.org/2000/svg">
<path fill-rule="evenodd" clip-rule="evenodd" d="M0 12.5C0 14.5712 3.35875 16.25 7.5 16.25C11.6413 16.25 15 14.5712 15 12.5C15 11.735 14.5363 11.025 13.75 10.4325V8.75C13.75 6.16875 12.1825 3.95375 9.94875 3C10.0985 2.26462 9.91017 1.50084 9.43561 0.919454C8.96105 0.338063 8.25048 0.00052817 7.5 0C6.74952 0.00052817 6.03895 0.338063 5.56439 0.919454C5.08983 1.50084 4.90145 2.26462 5.05125 3C2.81625 3.95375 1.25 6.16875 1.25 8.75V10.4325C0.46375 11.025 0 11.735 0 12.5ZM9.98 17.3C9.19 17.4175 8.3675 17.5 7.5 17.5C6.6325 17.5 5.81125 17.4175 5.02 17.3C5.01799 17.3271 5.01438 17.3536 5.01077 17.38C5.00538 17.4195 5 17.4588 5 17.5C5 18.88 6.12 20 7.5 20C8.88 20 10 18.88 10 17.5C10 17.4588 9.99462 17.4195 9.98923 17.38C9.98562 17.3536 9.98201 17.3271 9.98 17.3Z" fill="#EDD556"/>
</svg>
