<svg width="18" height="20" viewBox="0 0 18 20" fill="none" xmlns="http://www.w3.org/2000/svg">
<path fill-rule="evenodd" clip-rule="evenodd" d="M17.5 3.75C17.5 3.05964 16.9404 2.5 16.25 2.5H15V1.25C15 0.559644 14.4404 0 13.75 0C13.0596 0 12.5 0.559644 12.5 1.25V2.5H10V1.25C10 0.559644 9.44036 0 8.75 0C8.05964 0 7.5 0.559644 7.5 1.25V2.5H5V1.25C5 0.559644 4.44036 0 3.75 0C3.05964 0 2.5 0.559644 2.5 1.25V2.5H1.25C0.559644 2.5 0 3.05964 0 3.75V18.75C0 19.4404 0.559644 20 1.25 20H16.25C16.9404 20 17.5 19.4404 17.5 18.75V3.75ZM2.5 8.75V7.5H15V8.75H2.5ZM2.5 11.25V12.5H15V11.25H2.5ZM2.5 16.25V15H15V16.25H2.5Z" fill="#726CEE"/>
</svg>
