<svg width="20" height="20" viewBox="0 0 20 20" fill="none" xmlns="http://www.w3.org/2000/svg">
<path fill-rule="evenodd" clip-rule="evenodd" d="M10 0C4.47715 0 0 4.47715 0 10C0 15.5228 4.47715 20 10 20C15.5228 20 20 15.5228 20 10C20 4.47715 15.5228 0 10 0ZM10 17.3333C5.94991 17.3333 2.66667 14.0501 2.66667 10C2.66667 5.94991 5.94991 2.66667 10 2.66667C14.0501 2.66667 17.3333 5.94991 17.3333 10C17.3333 11.9449 16.5607 13.8102 15.1854 15.1854C13.8102 16.5607 11.9449 17.3333 10 17.3333ZM10 4C6.68629 4 4 6.68629 4 10C4 13.3137 6.68629 16 10 16C13.3137 16 16 13.3137 16 10C16 6.68629 13.3137 4 10 4ZM13.3333 11.3333H9.33333C8.96514 11.3333 8.66667 11.0349 8.66667 10.6667V8C8.66667 7.63181 8.96514 7.33333 9.33333 7.33333C9.70152 7.33333 10 7.63181 10 8V10H13.3333C13.7015 10 14 10.2985 14 10.6667C14 11.0349 13.7015 11.3333 13.3333 11.3333Z" fill="#8E4CB6"/>
</svg>
